<?xml version="1.0" encoding="utf-8"?>
<!-- Generator: Adobe Illustrator 23.0.1, SVG Export Plug-In . SVG Version: 6.00 Build 0)  -->
<svg version="1.1" id="Layer_1" xmlns="http://www.w3.org/2000/svg" xmlns:xlink="http://www.w3.org/1999/xlink" x="0px" y="0px"
	 viewBox="0 0 1090 1664" style="enable-background:new 0 0 1090 1664;" xml:space="preserve">
<style type="text/css">
	.st0{fill:#6C63FF;}
	.st1{fill:#3F3D56;}
	.st2{fill:#FFB9B9;}
	.st3{opacity:0.1;enable-background:new    ;}
	.st4{fill:#CFCCE0;}
</style>
<g>
	<g id="colorFilling_2_">
		<path class="st0" d="M925.7,1366.6c0,0-117.5-19.8-154.6,5.4C734,1397.3,925.7,1366.6,925.7,1366.6z"/>
		<path class="st0" d="M943.6,1325.6c0,0-84.1-66.1-120.8-64C786.2,1263.4,943.6,1325.6,943.6,1325.6z"/>
		<path class="st0" d="M978.7,1322.4c0,0,20-156.4,37.3-162.3C1033.3,1154.2,978.7,1322.4,978.7,1322.4z"/>
		<path class="st0" d="M981.5,1361.3c0,0,89.9-115.2,115.4-99.4C1122.2,1277.6,981.5,1361.3,981.5,1361.3z"/>
		<path class="st0" d="M980.3,1416c0,0,0,166.1-19.4,170.4C941.7,1590.5,980.3,1416,980.3,1416z"/>
		<path class="st0" d="M995.1,1371.2c0,0,114.7-11.4,275.6,112.5S995.1,1371.2,995.1,1371.2z"/>
		<path class="st0" d="M955.5,1394.5c0,0-159.8,166.7-123.4,186.3C868.6,1600.4,955.5,1394.5,955.5,1394.5z"/>
		<path class="st0" d="M930.7,1392.2c0,0-163.3,72.1-161.5,91.4C771.1,1502.9,930.7,1392.2,930.7,1392.2z"/>
		<path class="st0" d="M946.4,1285.9c0,0-24.6-170.2-108.3-206.7C754.3,1042.4,946.4,1285.9,946.4,1285.9z"/>
		<path class="st0" d="M884.7,1237.2c0,0-106.7-78.3-110.8-49.1C769.8,1217.1,884.7,1237.2,884.7,1237.2z"/>
		<path class="st0" d="M958.1,1165.3c0,0,11-37.5-2.8-36.5C941.6,1129.7,958.1,1165.3,958.1,1165.3z"/>
		<path class="st0" d="M1027.3,1282.9c0,0,93.8-113.1,81.5-121.3C1096.3,1153.3,1027.3,1282.9,1027.3,1282.9z"/>
		<g id="colorFilling_1_">
			<path class="st0" d="M153.3,1422.3c0,0-117.7-19.9-155.1,5.4C-39.1,1453,153.3,1422.3,153.3,1422.3z"/>
			<path class="st0" d="M171.3,1381.5c0,0-84.3-65.9-121.2-63.8C13.5,1319.6,171.3,1381.5,171.3,1381.5z"/>
			<path class="st0" d="M206.5,1378.4c0,0,20.1-155.9,37.5-161.7C261.4,1210.7,206.5,1378.4,206.5,1378.4z"/>
			<path class="st0" d="M209.4,1417.1c0,0,90.3-114.8,115.8-99.2C350.6,1333.6,209.4,1417.1,209.4,1417.1z"/>
			<path class="st0" d="M208.2,1471.7c0,0,0,165.7-19.5,169.9C169.5,1645.8,208.2,1471.7,208.2,1471.7z"/>
			<path class="st0" d="M222.9,1427.1c0,0,115.2-11.2,276.5,112.3S222.9,1427.1,222.9,1427.1z"/>
			<path class="st0" d="M183.4,1450.2c0,0-160.3,166.2-123.9,185.9C96.1,1655.7,183.4,1450.2,183.4,1450.2z"/>
			<path class="st0" d="M158.4,1448c0,0-163.9,71.8-162,91C-1.8,1558.2,158.4,1448,158.4,1448z"/>
			<path class="st0" d="M174.1,1341.9c0,0-24.6-169.7-108.6-206.2C-18.6,1099.1,174.1,1341.9,174.1,1341.9z"/>
			<path class="st0" d="M112.2,1293.2c0,0-107.1-77.9-111.1-49C-3,1273.2,112.2,1293.2,112.2,1293.2z"/>
			<path class="st0" d="M186,1221.8c0,0,11.1-37.3-2.8-36.4C169.3,1186.3,186,1221.8,186,1221.8z"/>
			<path class="st0" d="M255.4,1339c0,0,94-112.7,81.7-120.9C324.8,1209.9,255.4,1339,255.4,1339z"/>
		</g>
		<g id="colorFilling_4_">
			<path class="st0" d="M947.9,832.1c0,0-70.3-11.8-92.5,3.2C833.2,850.4,947.9,832.1,947.9,832.1z"/>
			<path class="st0" d="M958.6,807.7c0,0-50.3-39.4-72.3-38.1C864.5,770.7,958.6,807.7,958.6,807.7z"/>
			<path class="st0" d="M979.6,805.8c0,0,11.9-93.1,22.3-96.7C1012.2,705.6,979.6,805.8,979.6,805.8z"/>
			<path class="st0" d="M981.2,829c0,0,53.8-68.6,69-59.2C1065.4,779.1,981.2,829,981.2,829z"/>
			<path class="st0" d="M980.6,861.5c0,0,0,98.9-11.6,101.5C957.5,965.5,980.6,861.5,980.6,861.5z"/>
			<path class="st0" d="M989.4,834.9c0,0,68.6-6.8,164.8,67S989.4,834.9,989.4,834.9z"/>
			<path class="st0" d="M965.7,848.7c0,0-95.6,99.3-73.8,111C913.8,971.4,965.7,848.7,965.7,848.7z"/>
			<path class="st0" d="M950.9,847.4c0,0-97.7,42.9-96.6,54.4C855.4,913.3,950.9,847.4,950.9,847.4z"/>
			<path class="st0" d="M960.3,784c0,0-14.7-101.4-64.8-123.1C845.4,639.1,960.3,784,960.3,784z"/>
			<path class="st0" d="M923.4,755c0,0-63.8-46.6-66.2-29.2C854.7,743.1,923.4,755,923.4,755z"/>
			<path class="st0" d="M967.3,712.2c0,0,6.6-22.3-1.7-21.7S967.3,712.2,967.3,712.2z"/>
			<path class="st0" d="M1008.7,782.3c0,0,56.1-67.4,48.7-72.3C1049.9,705.1,1008.7,782.3,1008.7,782.3z"/>
		</g>
		<g id="colorFilling_5_">
			<path class="st0" d="M208.8,755.9c0,0-106.1-18.8-139.6,5.1C35.5,784.6,208.8,755.9,208.8,755.9z"/>
			<path class="st0" d="M224.9,717.4c0,0-75.9-62.1-109.2-60C82.7,659.3,224.9,717.4,224.9,717.4z"/>
			<path class="st0" d="M256.6,714.6c0,0,18-146.6,33.7-152.2C306.1,556.6,256.6,714.6,256.6,714.6z"/>
			<path class="st0" d="M259.2,751c0,0,81.2-107.9,104.1-93.3C386.4,672.5,259.2,751,259.2,751z"/>
			<path class="st0" d="M258.1,802.4c0,0,0,155.9-17.6,159.8C223.1,966.2,258.1,802.4,258.1,802.4z"/>
			<path class="st0" d="M271.3,760.5c0,0,103.7-10.7,249,105.6S271.3,760.5,271.3,760.5z"/>
			<path class="st0" d="M235.9,782c0,0-144.4,156.4-111.6,174.9C157.3,975.4,235.9,782,235.9,782z"/>
			<path class="st0" d="M213.2,779.9c0,0-147.7,67.6-145.9,85.7C69,883.7,213.2,779.9,213.2,779.9z"/>
			<path class="st0" d="M227.5,680.1c0,0-22.2-159.6-97.7-194.1S227.5,680.1,227.5,680.1z"/>
			<path class="st0" d="M171.6,634.5c0,0-96.4-73.4-100.2-46.1C67.7,615.7,171.6,634.5,171.6,634.5z"/>
			<path class="st0" d="M238.1,567.1c0,0,9.9-35.2-2.4-34.3C223.1,533.9,238.1,567.1,238.1,567.1z"/>
			<path class="st0" d="M300.6,677.6c0,0,84.7-106.1,73.5-113.7C362.9,556,300.6,677.6,300.6,677.6z"/>
		</g>
		<g id="colorFilling_6_">
			<path class="st0" d="M729.5,293.8c0,0-112.2-18.1-147.8,4.9S729.5,293.8,729.5,293.8z"/>
			<path class="st0" d="M746.7,256.5c0,0-80.4-60.2-115.5-58.2C596.3,200,746.7,256.5,746.7,256.5z"/>
			<path class="st0" d="M780.3,253.7c0,0,19.2-142.2,35.7-147.6C832.6,100.6,780.3,253.7,780.3,253.7z"/>
			<path class="st0" d="M783,289c0,0,86.1-104.7,110.4-90.5C917.7,212.8,783,289,783,289z"/>
			<path class="st0" d="M781.9,338.9c0,0,0,151.2-18.6,155C745,497.7,781.9,338.9,781.9,338.9z"/>
			<path class="st0" d="M795.9,298.1c0,0,109.8-10.3,263.6,102.5S795.9,298.1,795.9,298.1z"/>
			<path class="st0" d="M758.3,319.2c0,0-152.8,151.7-118.1,169.7C675.1,506.7,758.3,319.2,758.3,319.2z"/>
			<path class="st0" d="M734.4,317.2c0,0-156.3,65.5-154.4,83.1C581.7,417.7,734.4,317.2,734.4,317.2z"/>
			<path class="st0" d="M749.4,220.4c0,0-23.4-154.9-103.5-188.2C565.7-1.1,749.4,220.4,749.4,220.4z"/>
			<path class="st0" d="M690.3,176c0,0-102.1-71.1-105.9-44.7C580.5,157.7,690.3,176,690.3,176z"/>
			<path class="st0" d="M760.7,110.8c0,0,10.6-34-2.7-33.2C744.8,78.4,760.7,110.8,760.7,110.8z"/>
			<path class="st0" d="M826.9,217.7c0,0,89.6-102.9,77.9-110.3C893.1,99.9,826.9,217.7,826.9,217.7z"/>
		</g>
		<g id="colorFilling_7_">
			<path class="st0" d="M172.6,183.3c0,0-92-15.4-121.2,4.2S172.6,183.3,172.6,183.3z"/>
			<path class="st0" d="M186.7,151.7c0,0-65.9-51-94.7-49.3C63.3,103.8,186.7,151.7,186.7,151.7z"/>
			<path class="st0" d="M214.3,149.4c0,0,15.7-120.6,29.3-125.1C257.2,19.5,214.3,149.4,214.3,149.4z"/>
			<path class="st0" d="M216.5,179.3c0,0,70.6-88.8,90.5-76.7C326.9,114.7,216.5,179.3,216.5,179.3z"/>
			<path class="st0" d="M215.5,221.6c0,0,0,128.2-15.2,131.4C185.3,356.2,215.5,221.6,215.5,221.6z"/>
			<path class="st0" d="M227,187c0,0,90.1-8.7,216.2,86.9S227,187,227,187z"/>
			<path class="st0" d="M196.2,204.9c0,0-125.4,128.6-96.9,143.8C128,363.9,196.2,204.9,196.2,204.9z"/>
			<path class="st0" d="M176.6,203.1c0,0-128.2,55.5-126.6,70.4C51.4,288.4,176.6,203.1,176.6,203.1z"/>
			<path class="st0" d="M188.9,121.1c0,0-19.2-131.3-84.9-159.6S188.9,121.1,188.9,121.1z"/>
			<path class="st0" d="M140.5,83.5c0,0-83.7-60.3-86.9-37.9C50.3,68.1,140.5,83.5,140.5,83.5z"/>
			<path class="st0" d="M198.2,28.2c0,0,8.7-28.8-2.2-28.1C185.2,0.7,198.2,28.2,198.2,28.2z"/>
			<path class="st0" d="M252.5,118.8c0,0,73.5-87.2,63.9-93.5C306.8,19,252.5,118.8,252.5,118.8z"/>
		</g>
	</g>
	<g id="outline_2_">
		<path class="st1" d="M693,1390.5c-1.5-0.6-2.4-2.1-3-3.9c-1.3-5.1,4.1-9.7,8.6-12.7c57.8-40.4,231.8-13.7,239-12.5l15.8,2.4
			l-16.2,3c-0.6,0.2-60.6,10.7-120.3,18.5C724.1,1397.8,699.9,1394.8,693,1390.5z M919.5,1364.5c-46.2-5.8-172.9-18.2-218.7,13.9
			c-6.2,4.1-6.2,6.2-6.2,6.2c0.2,1.1,5.4,10.7,121.6-4.5C856.7,1375,897.4,1368.4,919.5,1364.5z"/>
		<path class="st1" d="M812.3,1268.3c-31.5-19.3-30.6-26.6-30.2-30c0.7-6.6,8.8-8.4,11.6-9c57.2-12.5,157,96.8,161.1,101.5l8,9
			l-10.8-4.3c-0.4-0.2-43.3-17.8-85.6-38.2C842.4,1285.5,824.8,1275.9,812.3,1268.3z M856.2,1253.1c-22-13.7-44.2-22.1-61.7-18.4
			c-5.2,1.1-7.3,3-7.5,4.1c-0.4,3,4.5,16.1,81.9,53.4c28.7,13.9,58.2,26.8,73.8,33.1C926.6,1309.1,891.4,1274.8,856.2,1253.1z"/>
		<path class="st1" d="M975.5,1335.3l3-20.4c0.2-0.6,7.5-50.7,17.9-100.6c21.4-102.8,34.9-104.5,39.2-105c2.2-0.4,4.5,0.6,5.8,2.8
			c12.7,20.6-50.9,185.4-58.4,204.1L975.5,1335.3z M1036.8,1114.9c-0.4-0.2-0.7-0.2-1.1-0.2c-15.7,1.9-37.1,103.4-49.4,179.2
			c26.3-69.8,58.5-165.9,50.9-178.5C1037.2,1115.1,1037,1114.9,1036.8,1114.9z"/>
		<path class="st1" d="M970.5,1366.4l7.8-9.2c5.8-6.7,140.8-165.3,186.5-137.3c6.3,3.9,7.3,9,6.9,12.5
			c-3.4,38-171.7,119.8-190.9,129L970.5,1366.4z M1162.3,1224.4c-36.4-22.3-141.9,92.1-172.3,126.6
			c57.2-28.1,174.5-91.6,177.1-119.1C1167.2,1231.2,1167.4,1227.4,1162.3,1224.4z"/>
		<path class="st1" d="M988,1370.3l6.5-1.9c1.3-0.4,33.4-8.6,84.5,0.4c47,8.2,119.7,33.5,198.8,106.5c33.4,30.9,35.2,39.9,32.3,44.9
			c-3,5.1-9.7,16.5-164.6-64c-75.7-39.3-150.8-82-151.6-82.6L988,1370.3z M1199.6,1422.4c-96-59.2-173.4-53.4-196.9-49.8
			c19.8,11.2,82.2,46.1,144.9,78.8c144,74.9,157.6,68.3,158.7,66.3c0.2-0.2,2.8-5.8-31.5-37.6
			C1251.3,1458.1,1226.1,1438.8,1199.6,1422.4L1199.6,1422.4z"/>
		<path class="st1" d="M958.5,1647.1c-0.7-0.6-1.5-1.1-2.1-1.9c-18.8-23.6,17-217.4,21.3-239.3l3.7-19.7l1.1,19.7
			c0,0.6,3,59.4,2.2,118c-1.3,108.4-12.9,122.7-21.6,124C961.3,1648.2,959.8,1648,958.5,1647.1z M978.5,1427.6
			c-12.1,68.9-31.5,197.4-18.5,213.8c0.6,0.9,1.7,1.3,2.6,1.1c4.7-0.6,16-13.9,17.2-118.3C980.3,1487.2,979.2,1449.9,978.5,1427.6
			L978.5,1427.6z"/>
		<path class="st1" d="M800.8,1605.9c-6.2-3.9-9.5-9.5-9.9-17.4c-2.4-54.5,155.5-191.2,162-197l7.3-6.2l-3.7,9.2
			c-3,7.7-74.4,186.7-130.7,211.6c-8.8,3.9-17,3.9-24.2-0.2C801.3,1606.2,801,1606.1,800.8,1605.9z M948.3,1402.5
			c-31.9,28.1-154.6,140.4-152.7,185.4c0.4,6.2,3,10.5,8.4,13.7c6.2,3.4,12.9,3.4,20.5,0C871.4,1580.4,932.2,1440.7,948.3,1402.5z"
			/>
		<path class="st1" d="M715.7,1513.7c-1.3-0.7-2.4-1.9-2.8-3.6c-0.7-2.2-0.6-4.7,0.4-6.9c14.2-34.1,229.2-125.3,238.1-129l21.6-9
			l-19.8,13.9c-8.4,6-206.8,145.5-236.1,135.4C716.9,1514.1,716.3,1513.9,715.7,1513.7z M930,1389
			c-71.8,31.5-202.5,92.5-212.4,116.3c-0.4,0.7-0.6,1.9-0.4,2.6c0.4,0.6,0.9,1.3,1.7,1.3C739.2,1516.2,863.4,1434.9,930,1389
			L930,1389z"/>
		<path class="st1" d="M1028.3,1280.1l9.1-18.5c3-6,72-146.4,96.6-155.4c1.9-0.7,4.1-0.7,6,0.4c1.7,1.1,2.8,3,3,5.4
			c2.6,25.1-91,139.7-101.6,152.8L1028.3,1280.1z M1137.3,1111.1c-0.2-0.2-0.9-0.6-2.4,0c-16.2,6-59.5,85.4-83.5,132.8
			c39.9-49.8,88.4-116.1,86.7-131.3C1137.9,1112.1,1137.7,1111.3,1137.3,1111.1z"/>
		<g>
			<path class="st1" d="M955,1298.2l-5.8-5.8c-0.4-0.6-46.4-47.7-89.9-98.9c-88.8-104.3-80.4-121.9-77.6-127.7
				c3.4-6.9,12.1-8.8,26.5-5.2c53.5,12.9,90.1,74.7,111.3,124c14.2,33.3,25.4,68.5,33.6,104.9L955,1298.2z M834.1,1077.6
				c-8.6-5.4-17.7-9-27.2-11.4c-11.4-2.8-19-1.9-21.1,2.2c-11.4,23.4,87.6,138.4,160.5,213.8C938,1246.9,903,1120,834.1,1077.6
				L834.1,1077.6z"/>
		</g>
		<g id="outline_1_">
			<path class="st1" d="M-80.1,1446.3c-1.5-0.6-2.5-2.2-3-3.9c-1.3-4.9,4.2-9.7,8.5-12.8c57.9-40.4,232.5-13.6,239.8-12.5l15.9,2.5
				l-16.2,2.9c-0.6,0.2-60.7,10.6-120.7,18.6C-48.7,1453.6-73,1450.5-80.1,1446.3z M147.3,1420.3c-46.5-5.9-173.4-18-219.4,13.9
				c-6.1,4.2-6.1,6.2-6.1,6.2c0.1,1.1,5.4,10.6,121.9-4.5C84.1,1430.6,124.9,1424.1,147.3,1420.3z"/>
			<path class="st1" d="M39.8,1324.5c-31.5-19.3-30.6-26.5-30.3-29.9c0.7-6.6,8.8-8.5,11.7-9.1c57.4-12.6,157.5,96.6,161.5,101.2
				l8.1,8.9l-10.8-4.3c-0.4-0.2-43.5-17.7-85.8-38C69.7,1341.6,52.2,1332,39.8,1324.5z M83.5,1309.2c-22-13.6-44.4-22.2-61.9-18.2
				c-5.2,1.1-7.3,2.9-7.5,4c-0.3,3.1,4.3,16,82.2,53.3c28.9,13.9,58.3,26.6,73.9,33.1C154.3,1365.2,118.9,1331,83.5,1309.2z"/>
			<path class="st1" d="M203.4,1391.3l3-20.3c0.1-0.5,7.5-50.5,18-100.3c21.6-102.6,34.9-104.1,39.3-104.7c2.2-0.3,4.3,0.6,5.7,2.8
				c12.7,20.5-51.1,184.8-58.5,203.5L203.4,1391.3z M264.9,1171.4c-0.3-0.2-0.7-0.2-1-0.2c-15.7,2-37.3,103-49.5,178.5
				c26.4-69.6,58.6-165.4,51-177.9C265.2,1171.7,265,1171.5,264.9,1171.4z"/>
			<path class="st1" d="M198.3,1422.1l7.8-9.2c5.7-6.8,141.3-164.8,187-136.9c6.3,3.9,7.2,9.1,6.9,12.6
				c-3.4,37.9-172.3,119.5-191.5,128.6L198.3,1422.1z M390.8,1280.7c-36.6-22.3-142.5,91.8-172.9,126.3
				c57.3-28,175.2-91.2,177.6-118.6C395.5,1287.2,395.8,1283.7,390.8,1280.7z"/>
			<path class="st1" d="M215.8,1426.2l6.6-1.8c1.3-0.3,33.4-8.6,84.7,0.3c47.2,8.2,120.1,33.4,199.5,106.3
				c33.4,30.8,35.4,39.7,32.4,44.7c-3,4.9-9.7,16.5-165.3-63.9c-75.9-39.3-151.3-81.8-151.9-82.4L215.8,1426.2z M428.2,1477.9
				c-96.4-59-174-53.3-197.5-49.8c19.9,11.1,82.3,46.1,145.3,78.7c144.4,74.7,158.1,68.1,159.3,66.1c0.1-0.2,2.8-5.9-31.6-37.4
				C480.1,1513.6,454.9,1494.4,428.2,1477.9L428.2,1477.9z"/>
			<path class="st1" d="M186.4,1702c-0.7-0.5-1.5-1.1-2.1-2c-18.9-23.6,17.1-216.7,21.4-238.6l3.7-19.6l1,19.6
				c0,0.6,3,59.3,2.2,117.7c-1.3,108-12.9,122.3-21.6,123.7C189.1,1703.2,187.6,1702.9,186.4,1702z M206.2,1483.1
				c-12.3,68.7-31.6,196.8-18.6,213.2c0.6,0.9,1.6,1.2,2.7,1.1c4.6-0.6,16-13.7,17.2-118C208.2,1542.6,207.1,1505.5,206.2,1483.1
				L206.2,1483.1z"/>
			<path class="st1" d="M28.1,1660.9c-6.1-3.9-9.6-9.5-9.9-17.3c-2.4-54.2,156-190.5,162.6-196.4l7.2-6.2l-3.7,9.2
				c-3,7.5-74.5,186.2-131.1,211c-8.8,3.9-17.1,3.9-24.3-0.2C28.7,1661.2,28.4,1661,28.1,1660.9z M176.1,1458.2
				c-31.9,28-155.1,140-153.1,184.8c0.3,6.2,3,10.5,8.4,13.6c6.1,3.4,12.9,3.4,20.7,0C99,1635.6,160,1496.2,176.1,1458.2z"/>
			<path class="st1" d="M-57.1,1569.1c-1.3-0.8-2.4-2-2.8-3.5c-0.7-2.3-0.6-4.6,0.4-6.9c14.1-34,229.8-124.8,238.9-128.6l21.6-9.1
				l-19.9,13.9c-8.4,6-207.4,144.9-237,134.9C-56.1,1569.6-56.7,1569.2-57.1,1569.1z M157.8,1444.8c-72,31.3-203.2,92.3-213,116
				c-0.4,0.8-0.6,1.8-0.3,2.6c0.3,0.6,0.9,1.2,1.6,1.2C-33.7,1571.4,90.9,1490.5,157.8,1444.8L157.8,1444.8z"/>
			<path class="st1" d="M256.2,1336l9.1-18.6c3-6,72.3-146,96.9-155c1.9-0.8,4.2-0.8,5.8,0.3c1.8,1.1,2.8,3.1,3,5.4
				c2.7,25-91.2,139.4-102,152.3L256.2,1336z M365.6,1167.7c-0.1-0.2-0.9-0.5-2.4,0c-16.2,6-59.7,85-83.8,132.5
				c39.9-49.6,88.6-115.8,87-130.9C366.4,1168.6,366.1,1168,365.6,1167.7z"/>
			<g>
				<path class="st1" d="M182.7,1354.4l-5.7-5.9c-0.4-0.5-46.6-47.6-90.1-98.4c-89.1-104-80.7-121.5-77.8-127.4
					c3.4-6.9,12.1-8.8,26.5-5.2c53.7,12.9,90.4,74.4,111.6,123.7c14.2,33.3,25.5,68.2,33.6,104.4L182.7,1354.4z M61.5,1134.3
					c-8.5-5.4-17.7-9.1-27.3-11.6c-11.5-2.8-19-2-21.1,2.3c-11.4,23.4,87.9,137.9,160.9,213.2
					C165.7,1303.1,130.6,1176.5,61.5,1134.3L61.5,1134.3z"/>
			</g>
		</g>
		<g id="outline_4_">
			<path class="st1" d="M808.7,846.4c-0.9-0.3-1.4-1.2-1.8-2.3c-0.8-3,2.5-5.8,5.1-7.6c34.6-24.1,138.6-8.1,143-7.5l9.5,1.4
				l-9.7,1.8c-0.3,0.1-36.2,6.4-71.9,11C827.3,850.7,812.8,848.9,808.7,846.4z M944.2,830.9c-27.7-3.5-103.4-10.8-130.8,8.3
				c-3.7,2.5-3.7,3.7-3.7,3.7c0.1,0.7,3.2,6.4,72.7-2.7C906.6,837.1,930.9,833.2,944.2,830.9z"/>
			<path class="st1" d="M880.1,773.6c-18.8-11.5-18.3-15.8-18.1-17.8c0.4-3.9,5.2-5,6.9-5.4c34.2-7.5,93.9,57.7,96.4,60.4l4.8,5.4
				l-6.5-2.6c-0.2-0.1-25.9-10.6-51.2-22.8C898,783.8,887.6,778.1,880.1,773.6z M906.3,764.5c-13.2-8.1-26.4-13.2-36.9-10.9
				c-3.1,0.7-4.3,1.8-4.5,2.5c-0.2,1.8,2.7,9.6,49,31.8c17.2,8.3,34.8,15.9,44.2,19.7C948.5,797.9,927.4,777.5,906.3,764.5z"/>
			<path class="st1" d="M977.7,813.5l1.8-12.2c0.1-0.3,4.5-30.2,10.7-59.9c12.8-61.2,20.9-62.2,23.4-62.6c1.3-0.2,2.7,0.3,3.5,1.7
				c7.6,12.3-30.4,110.4-34.9,121.6L977.7,813.5z M1014.4,682.2c-0.2-0.1-0.4-0.1-0.7-0.1c-9.4,1.1-22.2,61.6-29.6,106.7
				c15.7-41.6,35-98.8,30.4-106.3C1014.6,682.3,1014.5,682.2,1014.4,682.2z"/>
			<path class="st1" d="M974.7,832l4.7-5.5c3.5-4,84.2-98.5,111.5-81.7c3.8,2.3,4.3,5.4,4.1,7.5c-2,22.6-102.7,71.4-114.2,76.8
				L974.7,832z M1089.4,747.5c-21.7-13.3-84.9,54.9-103,75.4c34.2-16.7,104.4-54.5,105.9-70.9
				C1092.3,751.5,1092.4,749.2,1089.4,747.5z"/>
			<path class="st1" d="M985.1,834.3l3.9-1.1c0.8-0.2,20-5.1,50.5,0.2c28.1,4.9,71.6,20,118.9,63.5c20,18.4,21.1,23.8,19.3,26.8
				c-1.8,3-5.8,9.8-98.5-38.1c-45.3-23.4-90.2-48.8-90.7-49.2L985.1,834.3z M1111.7,865.3c-57.4-35.2-103.7-31.8-117.8-29.7
				c11.8,6.7,49.2,27.4,86.7,47c86.1,44.6,94.2,40.7,94.9,39.5c0.1-0.1,1.7-3.5-18.8-22.4C1142.6,886.6,1127.6,875.2,1111.7,865.3
				L1111.7,865.3z"/>
			<path class="st1" d="M967.5,999.2c-0.4-0.3-0.9-0.7-1.2-1.1C955,984,976.4,868.6,979,855.5l2.2-11.7l0.7,11.7
				c0,0.3,1.8,35.4,1.3,70.3c-0.8,64.6-7.7,73-12.9,73.8C969.2,999.8,968.3,999.7,967.5,999.2z M979.5,868.5
				c-7.2,41-18.8,117.5-11,127.4c0.3,0.6,1,0.8,1.6,0.7c2.8-0.3,9.6-8.3,10.3-70.5C980.6,903.9,979.9,881.7,979.5,868.5L979.5,868.5
				z"/>
			<path class="st1" d="M873.2,974.6c-3.7-2.3-5.7-5.7-5.9-10.4c-1.4-32.5,93-113.9,96.9-117.3l4.3-3.7l-2.2,5.5
				c-1.8,4.6-44.5,111.2-78.2,126c-5.2,2.3-10.1,2.3-14.5-0.1C873.5,974.9,873.3,974.7,873.2,974.6z M961.4,853.5
				c-19.1,16.7-92.5,83.6-91.3,110.4c0.2,3.7,1.8,6.2,5,8.1c3.7,2,7.7,2,12.3,0C915.4,959.5,951.8,876.3,961.4,853.5z"/>
			<path class="st1" d="M822.3,919.8c-0.8-0.4-1.4-1.1-1.7-2.1c-0.4-1.3-0.3-2.8,0.2-4.1c8.5-20.3,137.1-74.6,142.4-76.8l12.9-5.4
				l-11.8,8.3c-5,3.6-123.7,86.7-141.2,80.6C823,920,822.7,919.9,822.3,919.8z M950.5,845.5c-42.9,18.7-121.1,55.1-127,69.3
				c-0.2,0.4-0.3,1.1-0.2,1.6c0.2,0.3,0.6,0.8,1,0.8C836.4,921.2,910.6,872.8,950.5,845.5L950.5,845.5z"/>
			<path class="st1" d="M1009.2,780.6l5.5-11c1.8-3.6,43-87.2,57.8-92.6c1.1-0.4,2.5-0.4,3.6,0.2c1,0.7,1.7,1.8,1.8,3.2
				c1.6,14.9-54.4,83.2-60.8,91L1009.2,780.6z M1074.5,680c-0.1-0.1-0.6-0.3-1.4,0c-9.7,3.6-35.6,50.9-50,79.1
				c23.9-29.7,52.9-69.1,51.9-78.2C1074.8,680.5,1074.7,680.1,1074.5,680z"/>
			<g>
				<path class="st1" d="M965.4,791.4l-3.5-3.5c-0.2-0.3-27.8-28.4-53.8-58.9c-53.1-62.1-48.1-72.6-46.4-76.1
					c2-4.1,7.2-5.2,15.8-3.1c32,7.7,53.9,44.5,66.6,73.8c8.5,19.9,15.2,40.8,20.1,62.5L965.4,791.4z M893.1,660
					c-5.1-3.2-10.6-5.4-16.3-6.8c-6.8-1.7-11.4-1.1-12.6,1.3c-6.8,13.9,52.4,82.4,96,127.4C955.3,760.8,934.3,685.2,893.1,660
					L893.1,660z"/>
			</g>
		</g>
		<g id="outline_5_">
			<path class="st1" d="M-1.4,778.6c-1.3-0.7-2.2-2.1-2.6-3.7c-1.1-4.6,3.7-9,7.7-12c52.2-38,209.3-12.7,215.9-11.8l14.3,2.3
				l-14.5,2.8c-0.4,0.2-54.6,10-108.7,17.4C26.7,785.3,4.7,782.5-1.4,778.6z M203.3,754c-41.8-5.6-156.1-16.9-197.4,13
				c-5.5,3.9-5.5,5.8-5.5,5.8c0.2,1.2,4.8,10,109.8-4.2C146.5,763.7,183,757.7,203.3,754z"/>
			<path class="st1" d="M106.4,663.9c-28.4-18.3-27.7-25-27.3-28.3c0.7-6.3,7.9-7.9,10.6-8.6c51.7-11.8,141.8,90.8,145.5,95.2
				l7.3,8.3l-9.7-4.2c-0.4-0.2-39.2-16.7-77.3-35.9C133.5,679.9,117.7,670.8,106.4,663.9z M145.8,649.5
				c-19.8-12.7-40.1-20.8-55.7-17.1c-4.8,1.2-6.6,2.8-6.8,3.7c-0.2,2.8,4,15.1,74,50c26,13,52.6,25,66.7,31
				C209.7,702.1,177.7,669.9,145.8,649.5z"/>
			<path class="st1" d="M253.7,726.7l2.6-19.2c0.2-0.5,6.8-47.5,16.3-94.3c19.4-96.4,31.5-98,35.4-98.7c2-0.2,4,0.7,5.3,2.5
				c11.4,19.2-46,174-52.6,191.3L253.7,726.7z M309.2,519.8c-0.2-0.2-0.7-0.2-0.9-0.2c-14.3,1.9-33.7,96.8-44.7,167.9
				c23.8-65.6,52.8-155.7,46-167.5C309.4,520,309.4,519.8,309.2,519.8z"/>
			<path class="st1" d="M249.3,755.6l7-8.6c5.3-6.5,127.2-155.2,168.4-128.8c5.7,3.7,6.6,8.6,6.2,11.8
				c-3.1,35.7-155.2,112.3-172.4,121.1L249.3,755.6z M422.5,622.7c-33-21.1-128.3,86.4-155.6,118.8c51.7-26.4,157.6-85.9,160-111.6
				C426.9,628.9,427.1,625.4,422.5,622.7z"/>
			<path class="st1" d="M264.9,759.6l5.9-1.6c1.1-0.2,30.2-8.1,76.4,0.2c42.5,7.6,108.3,31.5,179.6,100.1
				c30.2,29,31.9,37.3,29.3,42.2c-2.6,4.6-8.8,15.5-148.8-60.2c-68.5-36.8-136.3-77.1-136.9-77.4L264.9,759.6z M456.2,808.2
				c-86.7-55.4-156.7-50-177.9-46.8c17.8,10.4,74.2,43.3,131,73.9c130.1,70.4,142.4,64.2,143.3,62.1c0.2-0.2,2.4-5.6-28.6-35.2
				C502.9,841.8,480.2,823.7,456.2,808.2L456.2,808.2z"/>
			<path class="st1" d="M238.5,1019.2c-0.7-0.5-1.3-1.2-1.8-1.9c-16.9-22.2,15.4-203.8,19.2-224.5l3.3-18.3l0.9,18.3
				c0,0.7,2.6,55.8,2,110.7c-1.1,101.7-11.7,114.9-19.6,116.3C240.9,1020.1,239.6,1019.9,238.5,1019.2z M256.3,813.1
				c-11,64.6-28.6,185.1-16.7,200.6c0.4,0.9,1.5,1.2,2.4,1.2c4.2-0.7,14.5-13,15.6-111C258.1,869.1,257.2,834.1,256.3,813.1
				L256.3,813.1z"/>
			<path class="st1" d="M95.9,980.3c-5.5-3.7-8.6-9-8.8-16.2c-2.2-51,140.4-179.3,146.4-184.8l6.6-5.8l-3.3,8.6
				c-2.6,7.2-67.1,175.1-118,198.5c-7.9,3.7-15.4,3.7-22-0.2C96.3,980.8,96.1,980.5,95.9,980.3z M229.3,789.7
				c-28.8,26.4-139.6,131.8-138,174c0.2,5.8,2.6,10,7.5,12.7c5.5,3.2,11.4,3.2,18.5,0C159.7,956.4,214.7,825.3,229.3,789.7z"/>
			<path class="st1" d="M19,893.9c-1.1-0.7-2.2-1.9-2.4-3.2c-0.7-2.1-0.4-4.4,0.4-6.5C29.8,852.2,224,766.7,232.3,763l19.6-8.6
				l-17.8,13C226.6,773,47.2,903.9,20.8,894.4C20.1,894.4,19.5,894.1,19,893.9z M212.7,776.9C148,806.3,29.8,863.6,21,886
				c-0.4,0.7-0.4,1.6-0.2,2.3c0.2,0.7,0.9,1.2,1.5,1.2C40.2,896.2,152.4,820,212.7,776.9L212.7,776.9z"/>
			<path class="st1" d="M301.5,674.8l8.1-17.4c2.6-5.6,65.2-137.4,87.2-145.9c1.8-0.7,3.7-0.7,5.3,0.2c1.5,1.2,2.4,2.8,2.6,5.1
				c2.4,23.6-82.1,131.1-91.8,143.1L301.5,674.8z M399.8,516.3c-0.2-0.2-0.9-0.5-2.2,0c-14.5,5.6-53.7,80.1-75.5,124.6
				c35.9-46.6,79.7-108.9,78.4-123.2C400.5,517.3,400.3,516.6,399.8,516.3z"/>
			<g>
				<path class="st1" d="M235.2,691.9l-5.3-5.6c-0.4-0.5-42-44.7-81-92.7C68.8,496,76.3,479.3,78.9,474c3.1-6.5,10.8-8.1,24-4.9
					c48.4,12,81.4,70,100.6,116.3c12.8,31.3,22.9,64.2,30.4,98.2L235.2,691.9z M126,484.8c-7.7-5.1-15.8-8.6-24.7-10.9
					c-10.3-2.5-17.2-1.9-18.9,2.1c-10.1,22,79,129.7,145.1,200.6C219.8,643.7,188.3,524.7,126,484.8L126,484.8z"/>
			</g>
		</g>
		<g id="outline_6_">
			<path class="st1" d="M507.1,315.7c-1.4-0.6-2.4-2-2.9-3.5c-1.3-4.5,4-8.9,8.1-11.7c55.2-36.8,221.6-12.4,228.6-11.4l15.2,2.2
				l-15.4,2.7c-0.6,0.1-57.9,9.7-115.1,17C536.9,322.3,513.8,319.5,507.1,315.7z M723.8,291.9c-44.3-5.3-165.3-16.4-209.2,12.7
				c-5.9,3.8-5.9,5.6-5.9,5.6c0.1,1,5.1,9.7,116.2-4.1C663.6,301.4,702.5,295.5,723.8,291.9z"/>
			<path class="st1" d="M621.3,204.5c-30-17.6-29.2-24.2-28.9-27.3c0.7-6,8.4-7.7,11.2-8.3c54.8-11.5,150.1,88.1,154,92.3l7.7,8.2
				l-10.3-3.9c-0.4-0.1-41.5-16.2-81.8-34.7C649.9,220.1,633.2,211.4,621.3,204.5z M663,190.6c-21-12.4-42.3-20.2-59-16.6
				c-5,1-7,2.7-7.1,3.7c-0.3,2.8,4.1,14.6,78.4,48.6c27.6,12.7,55.6,24.3,70.5,30.2C730.5,241.6,696.8,210.4,663,190.6z"/>
			<path class="st1" d="M777.3,265.5l2.9-18.6c0.1-0.4,7.1-46.1,17.2-91.5c20.6-93.6,33.3-95,37.5-95.6c2.1-0.3,4.1,0.6,5.4,2.5
				c12.2,18.7-48.8,168.7-55.8,185.7L777.3,265.5z M835.9,64.8c-0.3-0.1-0.7-0.1-1-0.1c-15,1.8-35.6,94-47.2,162.9
				c25.2-63.5,55.9-151,48.6-162.3C836.2,65.1,836,64.9,835.9,64.8z"/>
			<path class="st1" d="M772.4,293.6l7.4-8.4c5.4-6.2,134.7-150.4,178.3-125c6,3.5,6.9,8.3,6.6,11.5
				c-3.3,34.6-164.3,109.1-182.6,117.4L772.4,293.6z M956,164.6c-34.9-20.4-135.8,83.8-164.8,115.3c54.6-25.6,167-83.2,169.3-108.2
				C960.4,170.5,960.7,167.3,956,164.6z"/>
			<path class="st1" d="M789.1,297.3l6.3-1.7c1.3-0.3,31.9-7.9,80.8,0.3c45,7.4,114.5,30.5,190.2,97c31.9,28.1,33.7,36.3,30.9,40.8
				c-2.9,4.5-9.3,15-157.6-58.3c-72.3-35.8-144.3-74.6-144.8-75.2L789.1,297.3z M991.6,344.5c-91.9-53.8-165.9-48.6-188.3-45.4
				c19,10.1,78.5,42,138.5,71.8c137.7,68.2,150.7,62.1,151.8,60.3c0.1-0.1,2.7-5.3-30.2-34.2C1041.1,377.1,1017,359.6,991.6,344.5
				L991.6,344.5z"/>
			<path class="st1" d="M761.1,549c-0.7-0.4-1.4-1-2-1.8c-18-21.5,16.3-197.8,20.4-217.7l3.6-17.9l1,17.9c0,0.6,2.9,54.1,2.1,107.4
				c-1.3,98.5-12.3,111.6-20.6,112.9C763.7,550.2,762.3,549.9,761.1,549z M780,349.3c-11.7,62.7-30.2,179.6-17.7,194.5
				c0.6,0.8,1.6,1.1,2.6,1c4.4-0.6,15.3-12.5,16.4-107.7C781.9,403.5,780.9,369.7,780,349.3L780,349.3z"/>
			<path class="st1" d="M610.1,511.5c-5.9-3.5-9.2-8.7-9.4-15.7c-2.3-49.5,148.7-173.9,155-179.2l6.9-5.6l-3.6,8.4
				c-2.9,6.9-71.1,169.9-125,192.6c-8.4,3.5-16.3,3.5-23.2-0.1C610.7,511.8,610.4,511.6,610.1,511.5z M751.3,326.5
				c-30.5,25.6-147.8,127.8-146,168.7c0.3,5.6,2.9,9.6,8,12.4c5.9,3.1,12.3,3.1,19.7,0C677.8,488.4,736,361.2,751.3,326.5z"/>
			<path class="st1" d="M528.9,427.7c-1.3-0.7-2.3-1.8-2.7-3.2c-0.7-2.1-0.6-4.2,0.4-6.3c13.4-31.1,219-113.9,227.8-117.4l20.6-8.3
				l-19,12.7c-8,5.5-197.7,132.3-225.9,123.1C529.9,428.1,529.4,427.9,528.9,427.7z M733.8,314.3c-68.6,28.5-193.7,84.2-203,105.8
				c-0.4,0.7-0.6,1.7-0.3,2.4c0.3,0.6,0.9,1.1,1.6,1.1C551.2,429.8,670,356,733.8,314.3L733.8,314.3z"/>
			<path class="st1" d="M827.6,215.1l8.7-17c2.9-5.5,68.9-133.3,92.4-141.4c1.9-0.7,4-0.7,5.6,0.3c1.7,1,2.7,2.8,2.9,4.9
				c2.6,22.8-86.9,127.2-97.2,139L827.6,215.1z M932,61.4c-0.1-0.1-0.9-0.4-2.3,0c-15.4,5.5-56.9,77.6-79.9,120.9
				c38-45.3,84.5-105.7,82.9-119.5C932.7,62.3,932.4,61.7,932,61.4z"/>
			<g>
				<path class="st1" d="M757.5,231.8l-5.4-5.3c-0.4-0.4-44.5-43.4-85.9-89.8C581.3,41.7,589.3,25.7,592,20.4
					c3.3-6.3,11.6-8,25.3-4.8c51.2,11.8,86.2,67.9,106.4,112.9c13.6,30.4,24.3,62.3,32,95.3L757.5,231.8z M642,30.9
					c-8.1-4.9-16.9-8.3-26-10.5c-11-2.5-18.2-1.8-20.2,2.1C585,43.9,679.6,148.3,749.3,217C741.4,185,707.9,69.4,642,30.9L642,30.9z
					"/>
			</g>
		</g>
		<g id="outline_7_">
			<path class="st1" d="M-9.8,201.9c-1.2-0.5-2-1.7-2.3-3c-1.1-3.8,3.3-7.5,6.7-9.9c45.3-31.2,181.8-10.5,187.5-9.7l12.4,1.9
				l-12.7,2.3c-0.5,0.1-47.5,8.2-94.4,14.4C14.7,207.5-4.3,205.1-9.8,201.9z M167.9,181.8c-36.4-4.5-135.6-13.9-171.6,10.7
				c-4.8,3.2-4.8,4.8-4.8,4.8c0.1,0.8,4.2,8.2,95.3-3.5C118.6,189.7,150.5,184.7,167.9,181.8z"/>
			<path class="st1" d="M83.9,107.6C59.2,92.7,59.9,87.1,60.2,84.5c0.6-5.1,6.9-6.6,9.1-7c44.9-9.8,123.1,74.7,126.3,78.3l6.3,6.9
				l-8.4-3.3c-0.4-0.1-34-13.7-67.1-29.4C107.3,120.9,93.6,113.5,83.9,107.6z M118.1,95.8c-17.2-10.5-34.7-17.2-48.4-14.1
				c-4.1,0.8-5.7,2.3-5.9,3.1c-0.2,2.4,3.4,12.4,64.3,41.2c22.6,10.7,45.6,20.6,57.8,25.6C173.5,139.1,145.8,112.5,118.1,95.8z"/>
			<path class="st1" d="M211.8,159.2l2.3-15.7c0.1-0.4,5.9-39.1,14.1-77.6c16.9-79.4,27.3-80.6,30.7-81c1.8-0.2,3.4,0.5,4.5,2.1
				c10,15.8-40,143-45.7,157.4L211.8,159.2z M259.9-10.8c-0.2-0.1-0.6-0.1-0.8-0.1c-12.3,1.4-29.1,79.7-38.7,138.1
				c20.6-53.9,45.8-128,39.9-137.6C260.1-10.6,260-10.7,259.9-10.8z"/>
			<path class="st1" d="M207.8,183.2l6.1-7.2c4.5-5.2,110.5-127.5,146.2-105.9c4.9,3,5.6,7,5.4,9.8c-2.7,29.3-134.7,92.5-149.7,99.5
				L207.8,183.2z M358.4,73.7c-28.6-17.3-111.4,71-135.2,97.7c44.8-21.7,137-70.5,138.8-91.8C362,78.8,362.2,76.1,358.4,73.7z"/>
			<path class="st1" d="M221.5,186.3l5.2-1.4c1.1-0.2,26.1-6.7,66.3,0.2c36.9,6.3,93.9,25.9,156,82.2c26.1,23.8,27.7,30.7,25.3,34.6
				c-2.3,3.8-7.6,12.8-129.2-49.5c-59.3-30.4-118.3-63.3-118.8-63.8L221.5,186.3z M387.6,226.3c-75.4-45.6-136-41.2-154.4-38.5
				c15.6,8.6,64.4,35.6,113.6,60.9c112.9,57.8,123.6,52.7,124.5,51.1c0.1-0.1,2.2-4.5-24.7-29C428.1,254,408.3,239.1,387.6,226.3
				L387.6,226.3z"/>
			<path class="st1" d="M198.5,399.7c-0.6-0.4-1.2-0.8-1.6-1.5c-14.8-18.2,13.4-167.7,16.8-184.6l2.9-15.1l0.8,15.1
				c0,0.5,2.3,45.9,1.8,91c-1.1,83.5-10.1,94.6-16.9,95.7C200.7,400.7,199.5,400.4,198.5,399.7z M214,230.4
				c-9.6,53.1-24.7,152.3-14.5,164.9c0.5,0.7,1.3,1,2.1,0.8c3.6-0.5,12.5-10.6,13.5-91.3C215.5,276.4,214.7,247.7,214,230.4
				L214,230.4z"/>
			<path class="st1" d="M74.7,367.9c-4.8-3-7.5-7.4-7.7-13.3c-1.9-41.9,122-147.4,127.1-151.9l5.6-4.8l-2.9,7.2
				c-2.3,5.8-58.3,144.1-102.5,163.3c-6.9,3-13.4,3-19-0.1C75.2,368.1,75,368,74.7,367.9z M190.5,211
				c-25,21.7-121.2,108.3-119.7,143c0.2,4.8,2.3,8.1,6.6,10.5c4.8,2.6,10.1,2.6,16.2,0C130.2,348.4,177.9,240.5,190.5,211z"/>
			<path class="st1" d="M8.1,296.9c-1.1-0.6-1.9-1.5-2.2-2.7c-0.6-1.8-0.5-3.6,0.4-5.4c11-26.3,179.6-96.5,186.8-99.5l16.9-7
				L194.3,193c-6.6,4.6-162.2,112.1-185.3,104.4C8.9,297.2,8.5,297,8.1,296.9z M176.1,200.6C119.9,224.8,17.3,272,9.6,290.3
				c-0.4,0.6-0.5,1.4-0.2,2c0.2,0.5,0.7,1,1.3,1C26.4,298.7,123.8,236.1,176.1,200.6L176.1,200.6z"/>
			<path class="st1" d="M253.1,116.6l7.2-14.4c2.3-4.6,56.5-113,75.8-119.9c1.5-0.6,3.3-0.6,4.6,0.2c1.4,0.8,2.2,2.4,2.3,4.2
				C345,6,271.6,94.5,263.2,104.5L253.1,116.6z M338.7-13.7c-0.1-0.1-0.7-0.4-1.9,0C324.1-9,290.1,52.1,271.2,88.8
				c31.2-38.4,69.3-89.6,68-101.3C339.3-13,339-13.4,338.7-13.7z"/>
			<g>
				<path class="st1" d="M195.6,130.6l-4.5-4.5c-0.4-0.4-36.5-36.8-70.5-76.1C51-30.5,57.6-44.1,59.8-48.6c2.7-5.4,9.5-6.8,20.8-4.1
					c42,10,70.7,57.6,87.2,95.7c11.1,25.7,19.9,52.8,26.3,80.8L195.6,130.6z M100.9-39.5c-6.7-4.2-13.8-7-21.3-8.8
					c-9-2.3-14.9-1.5-16.4,1.7C54.2-28.6,131.7,60,188.9,118.2C182.4,91.1,154.9-6.9,100.9-39.5L100.9-39.5z"/>
			</g>
		</g>
	</g>
	<g id="hand_1_">
		<path class="st2" d="M145.3,717.4c0,0-30.9-40.1-30.9-68.1c0,0-54.2-44.1-38.6-56.1s49,34.1,49,34.1S62.9,573.1,80.9,565
			c18-7.9,77.5,52.2,77.5,52.2l20.6-7.9c0,0-43.7-84.1-12.9-86.3c14.1-1,46.4,80.3,46.4,80.3l33.5,66.3c0,0,12.9,24,7.8,38.1
			c-3.1,8.6-5.7,17.3-7.8,26.1L145.3,717.4z"/>
		<path class="st3" d="M225.2,727.5c0,0,18-22.1,11.4-55.9c-6.5-33.7-42.5-52.5-42.5-52.5s-23.3,14,0,50.2c0,0-28.4,20-5.1,52.2"/>
		<path class="st2" d="M235.6,727.5c0,0,18-22.1,11.4-55.9s-42.5-52.6-42.5-52.6s-23.3,14,0,50.2c0,0-28.4,20-5.1,52.2"/>
		<path class="st3" d="M164.7,616.1L150.6,599c0,0-67-7.9-59.3,10s38.6,10,38.6,10l18,14L164.7,616.1z"/>
		<path class="st2" d="M176.3,615.1l-20.6-22c0,0-67-7.9-59.3,10c7.8,17.9,38.6,10,38.6,10l18,14L176.3,615.1z"/>
	</g>
	<polygon class="st2" points="465.2,960.2 452.7,1058.5 648.3,1071 648.3,952.7 	"/>
	<path id="body_1_" class="st4" d="M971,1663l-124.5-381.8c-7.5-37.8-30.7-99.2-102.8-138.6l-54.1-70.2l-40.4-2.2l-161.4-36
		c0,0-124-11.9-204.8,63.3l-21.7-15c0,0-35.4-193-19.7-331.8L151,738.7c0,0-49.3,328.8-25.6,428.4
		c23.6,99.8,110.3,171.8,110.3,171.8l76.7,117.6l29.5,205.2h460.6l7.3-53.8l36,53.8L971,1663z"/>
	<g id="face_1_">
		<path class="st4" d="M796,1009c-159.5,22.4-310,7.1-449.5-54.1c-16.4-7.2-25.6-23.6-22.7-40.8l72.6-426.6
			c3.3-19,20.7-33.5,41-34.3c142.1-4.7,288.6,15,438.5,54.3c19.9,5.2,32.1,23.5,28.7,42.9l-72.2,424.8
			C829.4,992.7,814.6,1006.4,796,1009z"/>
		<path class="st1" d="M463.7,818.5c0,0,43.7,46.9,152.3,57.2s144.1,10.6,171.5-11.9s29.3,7.6,18.9,25.8
			c-10.4,18.2-25.2,49.9-79.9,48.7c-36.1-0.8-112.8-9.4-161-14.9c-37.5-4.3-73.1-16.8-104.3-37c-0.4-0.3-0.9-0.5-1.2-0.7
			c-19.2-12.7-28.9-35.6-24.8-58.8c1.6-9,3.9-13.8,10.1-14.8C456.6,809.7,463.7,818.5,463.7,818.5z"/>
		<path class="st1" d="M557.5,1019.5c-73.7-8.9-145.2-28.5-212.1-58.2c-17.1-7.4-26.5-24.8-23.4-42.7L395,489
			c3.4-20,21.3-35.3,42.6-35.9c136.3-4.7,283.5,13.4,437.2,54c20.4,5.6,33,24.5,29.6,44.8l-72.7,427.8
			c-3.2,18.2-18.5,32.6-37.7,35.5c-80.6,11.6-158.5,13.1-231.8,4.5C560.6,1019.8,559.1,1019.7,557.5,1019.5z M646.3,466
			c-69-8.7-138.8-11.9-208.8-9.6c-19.6,0.7-36.4,14.7-39.3,33.3l-73.1,429.8c-2.8,16.6,6,32.6,21.7,39.5
			c133.4,59.1,283.8,77,446.7,53.6l0.1,1.6l-0.1-1.6c17.7-2.5,32.1-16,35-32.9l72.8-428c3-18.7-8.5-36.4-27.4-41.5
			C799.3,490.4,723.3,475.5,646.3,466L646.3,466z"/>
		<path class="st1" d="M624.1,528.5c-38.8-4.7-71.8-10.5-98.5-16.1c-84.3-17.8-127.8-38.2-128.2-38.4l1.7-3.2
			c0.4,0.3,43.6,20.6,127.6,38.2c77.3,16.4,206.2,33.7,380.3,23.4l0,3.6C792.8,542.7,697.8,537.5,624.1,528.5z"/>
	</g>
	<g id="eyes_1_">
		<path class="st1" d="M498.9,666.7c0,0-31.7-53.9-9-67.7c22.7-13.8,52.7,26.2,52.7,26.2s43.3-36,64.1-21.6
			c20.8,14.4-26.1,64.2-26.1,64.2s32,8.9,33.2,31.3s8.1,81.7-38.4,83.8c-24.8,1.1-38.2-6.6-45.2-13.7c-5.3-5.2-13.8-5.6-19.9-0.6
			c-16.7,13.4-46,28.8-63.8-10.1C442.1,699.6,498.9,666.7,498.9,666.7z"/>
		<path class="st1" d="M759.7,676.1c0,0,39.1-52.9,18.2-67.3c-20.8-14.4-56.1,24.5-56.1,24.5s-38.3-37.1-61-23.3
			c-22.7,13.8,17.4,64.9,17.4,64.9s-33.3,8-37.4,30.5c-4.3,22.5-19.2,81.3,26.9,84.8c24.7,1.8,39-5.3,47-12.4c6-5.1,14.5-5.1,20,0
			c14.7,13.8,41.9,30.2,65.1-8.3C811.7,710.6,759.7,676.1,759.7,676.1z"/>
	</g>
</g>
</svg>
